<svg width="2000px" height="2174px"
 viewBox="0.00 0.00 356.99 388.06" xmlns="http://www.w3.org/2000/svg" xmlns:xlink="http://www.w3.org/1999/xlink">
<g id="graph0" class="graph" transform="scale(1.0 1.0) rotate(0) translate(4 384.06)">
<title>ContextMapGraph</title>
<polygon fill="white" stroke="transparent" points="-4,4 -4,-384.06 352.99,-384.06 352.99,4 -4,4"/>
<!-- ImdbImportContext -->
<g id="node1" class="node">
<title>ImdbImportContext</title>
<polygon fill="none" stroke="black" stroke-width="2" points="278.31,-305.76 283.4,-308.03 288.17,-310.37 292.61,-312.76 296.69,-315.18 300.39,-317.63 303.7,-320.11 306.6,-322.6 309.08,-325.09 311.14,-327.57 312.74,-330.04 313.9,-332.49 314.61,-334.91 314.86,-337.29 314.65,-339.63 313.97,-341.92 312.85,-344.15 311.27,-346.32 309.24,-348.42 306.78,-350.46 303.9,-352.42 300.6,-354.3 296.9,-356.1 292.82,-357.81 288.37,-359.43 283.58,-360.97 278.46,-362.42 273.04,-363.78 267.34,-365.04 261.37,-366.21 255.18,-367.29 248.77,-368.27 242.18,-369.16 235.43,-369.96 228.55,-370.67 221.56,-371.29 214.49,-371.81 207.36,-372.25 200.2,-372.59 193.04,-372.85 185.89,-373.02 178.77,-373.11 171.72,-373.1 164.75,-373.01 157.89,-372.84 151.14,-372.59 144.53,-372.24 138.07,-371.82 131.79,-371.31 125.69,-370.72 119.78,-370.04 114.09,-369.29 108.61,-368.45 103.36,-367.52 98.35,-366.51 93.58,-365.43 89.06,-364.25 84.79,-363 80.78,-361.67 77.03,-360.25 73.54,-358.76 70.32,-357.18 67.36,-355.53 64.67,-353.81 62.25,-352.01 60.1,-350.14 58.21,-348.2 56.59,-346.2 55.23,-344.13 54.13,-342.01 53.3,-339.83 52.73,-337.61 52.42,-335.34 52.38,-333.03 52.59,-330.69 53.06,-328.33 53.79,-325.95 54.78,-323.55 56.03,-321.15 57.53,-318.76 59.29,-316.37 61.31,-314.01 63.59,-311.68 66.12,-309.38 68.91,-307.13 71.96,-304.93 75.25,-302.8 78.81,-300.74 82.61,-298.76 86.66,-296.86 90.95,-295.07 95.49,-293.38 100.26,-291.8 105.26,-290.34 110.49,-289.01 115.93,-287.81 121.58,-286.75 127.43,-285.83 133.46,-285.06 139.67,-284.44 146.05,-283.98 152.57,-283.67 159.22,-283.52 165.99,-283.53 172.86,-283.71 179.8,-284.04 186.81,-284.53 193.86,-285.18 200.92,-285.98 207.98,-286.93 215,-288.03 221.98,-289.27 228.88,-290.65 235.67,-292.16 242.34,-293.79 248.86,-295.54 255.2,-297.4 261.34,-299.35 267.25,-301.41 272.92,-303.54 278.31,-305.76"/>
<text text-anchor="middle" x="174.49" y="-327.92" font-family="sans-serif" font-size="16.00">ImdbImportContext</text>
</g>
<!-- MoviesAppContext -->
<g id="node2" class="node">
<title>MoviesAppContext</title>
<polygon fill="none" stroke="black" stroke-width="2" points="47.9,-191.12 46.86,-188.27 46.17,-185.42 45.84,-182.58 45.88,-179.77 46.28,-177 47.04,-174.28 48.17,-171.62 49.67,-169.03 51.53,-166.51 53.74,-164.09 56.31,-161.75 59.22,-159.53 62.48,-157.41 66.06,-155.41 69.96,-153.53 74.17,-151.78 78.68,-150.16 83.48,-148.67 88.54,-147.32 93.86,-146.11 99.42,-145.03 105.2,-144.1 111.18,-143.3 117.35,-142.64 123.69,-142.12 130.17,-141.74 136.78,-141.48 143.5,-141.36 150.31,-141.36 157.18,-141.48 164.09,-141.71 171.03,-142.06 177.96,-142.52 184.88,-143.08 191.76,-143.74 198.57,-144.49 205.31,-145.33 211.94,-146.25 218.45,-147.25 224.81,-148.32 231.02,-149.46 237.05,-150.67 242.89,-151.94 248.51,-153.26 253.91,-154.64 259.07,-156.06 263.98,-157.54 268.62,-159.05 272.98,-160.61 277.05,-162.21 280.82,-163.84 284.29,-165.51 287.43,-167.21 290.26,-168.94 292.76,-170.71 294.93,-172.5 296.76,-174.32 298.25,-176.17 299.4,-178.04 300.21,-179.94 300.68,-181.86 300.81,-183.8 300.6,-185.77 300.06,-187.75 299.18,-189.74 297.98,-191.76 296.45,-193.78 294.61,-195.81 292.46,-197.85 290.01,-199.88 287.26,-201.92 284.22,-203.95 280.91,-205.97 277.33,-207.97 273.49,-209.94 269.4,-211.9 265.07,-213.81 260.51,-215.69 255.74,-217.52 250.77,-219.29 245.61,-221 240.26,-222.65 234.75,-224.22 229.09,-225.7 223.29,-227.09 217.37,-228.39 211.33,-229.58 205.19,-230.65 198.98,-231.61 192.69,-232.44 186.35,-233.14 179.97,-233.7 173.57,-234.11 167.16,-234.38 160.76,-234.5 154.38,-234.45 148.04,-234.26 141.76,-233.9 135.54,-233.37 129.41,-232.69 123.39,-231.84 117.48,-230.83 111.7,-229.67 106.08,-228.34 100.62,-226.87 95.33,-225.24 90.25,-223.47 85.37,-221.57 80.72,-219.53 76.3,-217.37 72.13,-215.1 68.23,-212.72 64.61,-210.25 61.27,-207.69 58.24,-205.05 55.51,-202.35 53.11,-199.6 51.03,-196.8 49.29,-193.97 47.9,-191.12"/>
<text text-anchor="middle" x="174.49" y="-182.44" font-family="sans-serif" font-size="16.00">MoviesAppContext</text>
</g>
<!-- ImdbImportContext&#45;&#45;MoviesAppContext -->
<g id="edge1" class="edge">
<title>ImdbImportContext&#45;&#45;MoviesAppContext</title>
<path fill="none" stroke="black" stroke-width="2" d="M174.49,-283.74C174.49,-267.88 174.49,-250.19 174.49,-234.33"/>
<text text-anchor="middle" x="234.99" y="-255.77" font-family="sans-serif" font-size="12.00"> &#160;&#160;&#160;&#160;&#160;&#160;&#160;&#160;&#160;&#160;&#160;&#160;&#160;&#160;&#160;&#160;&#160;&#160;&#160;&#160;&#160;&#160;&#160;&#160;&#160;&#160;&#160;&#160;&#160;&#160;&#160;&#160;&#160;&#160;&#160;&#160;&#160;&#160;&#160;</text>
<polygon fill="white" stroke="transparent" points="155.49,-224.33 155.49,-243.33 171.49,-243.33 171.49,-224.33 155.49,-224.33"/>
<polyline fill="none" stroke="black" points="171.49,-224.33 171.49,-243.33 "/>
<text text-anchor="start" x="158.49" y="-230.73" font-family="sans-serif" font-size="12.00">D</text>
<polygon fill="white" stroke="transparent" points="171.49,-224.33 171.49,-243.33 194.49,-243.33 194.49,-224.33 171.49,-224.33"/>
<polygon fill="none" stroke="black" points="171.49,-224.33 171.49,-243.33 194.49,-243.33 194.49,-224.33 171.49,-224.33"/>
<text text-anchor="start" x="174.49" y="-230.73" font-family="sans-serif" font-size="12.00">CF</text>
<polygon fill="white" stroke="transparent" points="150.49,-273.74 150.49,-292.74 166.49,-292.74 166.49,-273.74 150.49,-273.74"/>
<polyline fill="none" stroke="black" points="166.49,-273.74 166.49,-292.74 "/>
<text text-anchor="start" x="153.49" y="-280.14" font-family="sans-serif" font-size="12.00">U</text>
<polygon fill="white" stroke="transparent" points="166.49,-273.74 166.49,-292.74 199.49,-292.74 199.49,-273.74 166.49,-273.74"/>
<polygon fill="none" stroke="black" points="166.49,-273.74 166.49,-292.74 199.49,-292.74 199.49,-273.74 166.49,-273.74"/>
<text text-anchor="start" x="169.49" y="-280.14" font-family="sans-serif" font-size="12.00">OHS</text>
</g>
<!-- MoviesPublicSiteContext -->
<g id="node3" class="node">
<title>MoviesPublicSiteContext</title>
<polygon fill="none" stroke="black" stroke-width="2" points="151.43,-1.03 161.66,-0.57 171.9,-0.24 182.1,-0.03 192.21,0.06 202.2,0.02 212.04,-0.15 221.67,-0.45 231.07,-0.88 240.21,-1.43 249.04,-2.11 257.55,-2.91 265.7,-3.84 273.46,-4.89 280.82,-6.06 287.76,-7.34 294.25,-8.73 300.29,-10.23 305.85,-11.83 310.94,-13.54 315.54,-15.33 319.65,-17.21 323.26,-19.17 326.39,-21.21 329.02,-23.32 331.17,-25.48 332.84,-27.71 334.05,-29.98 334.79,-32.3 335.09,-34.65 334.96,-37.02 334.41,-39.42 333.45,-41.82 332.11,-44.23 330.39,-46.64 328.32,-49.04 325.91,-51.42 323.19,-53.77 320.16,-56.09 316.84,-58.37 313.25,-60.61 309.41,-62.79 305.32,-64.91 301.02,-66.97 296.49,-68.96 291.77,-70.87 286.86,-72.7 281.77,-74.45 276.51,-76.1 271.09,-77.66 265.51,-79.12 259.79,-80.48 253.94,-81.73 247.95,-82.88 241.83,-83.91 235.59,-84.84 229.22,-85.65 222.75,-86.34 216.16,-86.92 209.46,-87.39 202.67,-87.73 195.77,-87.96 188.78,-88.07 181.7,-88.07 174.54,-87.95 167.31,-87.72 160.02,-87.37 152.67,-86.92 145.27,-86.35 137.85,-85.68 130.4,-84.91 122.95,-84.03 115.51,-83.05 108.1,-81.98 100.74,-80.81 93.45,-79.55 86.25,-78.21 79.16,-76.78 72.2,-75.28 65.41,-73.69 58.8,-72.04 52.41,-70.32 46.26,-68.53 40.37,-66.68 34.78,-64.78 29.51,-62.83 24.59,-60.83 20.04,-58.78 15.9,-56.7 12.19,-54.59 8.93,-52.45 6.14,-50.29 3.85,-48.1 2.07,-45.91 0.83,-43.71 0.14,-41.5 0.01,-39.3 0.45,-37.1 1.47,-34.92 3.08,-32.76 5.28,-30.62 8.07,-28.51 11.44,-26.43 15.39,-24.4 19.92,-22.41 25,-20.48 30.62,-18.6 36.77,-16.78 43.42,-15.03 50.54,-13.35 58.12,-11.75 66.13,-10.23 74.52,-8.81 83.27,-7.47 92.35,-6.23 101.71,-5.09 111.32,-4.05 121.14,-3.13 131.12,-2.31 141.23,-1.61 151.43,-1.03"/>
<text text-anchor="middle" x="174.49" y="-40.76" font-family="sans-serif" font-size="16.00">MoviesPublicSiteContext</text>
</g>
<!-- MoviesAppContext&#45;&#45;MoviesPublicSiteContext -->
<g id="edge2" class="edge">
<title>MoviesAppContext&#45;&#45;MoviesPublicSiteContext</title>
<path fill="none" stroke="black" stroke-width="2" d="M174.49,-142.19C174.49,-125.04 174.49,-105.34 174.49,-88.23"/>
<text text-anchor="middle" x="234.99" y="-110.52" font-family="sans-serif" font-size="12.00"> &#160;&#160;&#160;&#160;&#160;&#160;&#160;&#160;&#160;&#160;&#160;&#160;&#160;&#160;&#160;&#160;&#160;&#160;&#160;&#160;&#160;&#160;&#160;&#160;&#160;&#160;&#160;&#160;&#160;&#160;&#160;&#160;&#160;&#160;&#160;&#160;&#160;&#160;&#160;</text>
<polygon fill="white" stroke="transparent" points="155.49,-78.23 155.49,-97.23 171.49,-97.23 171.49,-78.23 155.49,-78.23"/>
<polyline fill="none" stroke="black" points="171.49,-78.23 171.49,-97.23 "/>
<text text-anchor="start" x="158.49" y="-84.63" font-family="sans-serif" font-size="12.00">D</text>
<polygon fill="white" stroke="transparent" points="171.49,-78.23 171.49,-97.23 194.49,-97.23 194.49,-78.23 171.49,-78.23"/>
<polygon fill="none" stroke="black" points="171.49,-78.23 171.49,-97.23 194.49,-97.23 194.49,-78.23 171.49,-78.23"/>
<text text-anchor="start" x="174.49" y="-84.63" font-family="sans-serif" font-size="12.00">CF</text>
<polygon fill="white" stroke="transparent" points="150.49,-132.19 150.49,-151.19 166.49,-151.19 166.49,-132.19 150.49,-132.19"/>
<polyline fill="none" stroke="black" points="166.49,-132.19 166.49,-151.19 "/>
<text text-anchor="start" x="153.49" y="-138.59" font-family="sans-serif" font-size="12.00">U</text>
<polygon fill="white" stroke="transparent" points="166.49,-132.19 166.49,-151.19 199.49,-151.19 199.49,-132.19 166.49,-132.19"/>
<polygon fill="none" stroke="black" points="166.49,-132.19 166.49,-151.19 199.49,-151.19 199.49,-132.19 166.49,-132.19"/>
<text text-anchor="start" x="169.49" y="-138.59" font-family="sans-serif" font-size="12.00">OHS</text>
</g>
</g>
</svg>
